<svg width="58" height="41" viewBox="0 0 58 41" fill="none" xmlns="http://www.w3.org/2000/svg">
<path d="M40 24.5H36V16.5C35.9991 16.3353 35.9576 16.1733 35.8791 16.0285C35.8006 15.8837 35.6876 15.7606 35.55 15.67L29.55 11.67C29.3867 11.5625 29.1955 11.5052 29 11.5052C28.8045 11.5052 28.6133 11.5625 28.45 11.67L22.45 15.67C22.3124 15.7606 22.1994 15.8837 22.1209 16.0285C22.0424 16.1733 22.0009 16.3353 22 16.5V24.5H18C17.2044 24.5 16.4413 24.8161 15.8787 25.3787C15.3161 25.9413 15 26.7043 15 27.5V37.5C15 37.7652 15.1054 38.0196 15.2929 38.2071C15.4804 38.3946 15.7348 38.5 16 38.5H42C42.2652 38.5 42.5196 38.3946 42.7071 38.2071C42.8946 38.0196 43 37.7652 43 37.5V27.5C43 26.7043 42.6839 25.9413 42.1213 25.3787C41.5587 24.8161 40.7956 24.5 40 24.5ZM17 27.5C17 27.2348 17.1054 26.9804 17.2929 26.7929C17.4804 26.6053 17.7348 26.5 18 26.5H22V36.5H17V27.5ZM24 25.5V17L29 13.7L34 17V36.5H32V27.5C32 27.2348 31.8946 26.9804 31.7071 26.7929C31.5196 26.6053 31.2652 26.5 31 26.5H27C26.7348 26.5 26.4804 26.6053 26.2929 26.7929C26.1054 26.9804 26 27.2348 26 27.5V36.5H24V25.5ZM28 36.5V28.5H30V36.5H28ZM41 36.5H36V26.5H40C40.2652 26.5 40.5196 26.6053 40.7071 26.7929C40.8946 26.9804 41 27.2348 41 27.5V36.5Z" fill="#95C50B"/>
<path d="M27 19.5H31C31.2652 19.5 31.5196 19.3946 31.7071 19.2071C31.8946 19.0196 32 18.7652 32 18.5C32 18.2348 31.8946 17.9804 31.7071 17.7929C31.5196 17.6054 31.2652 17.5 31 17.5H27C26.7348 17.5 26.4804 17.6054 26.2929 17.7929C26.1054 17.9804 26 18.2348 26 18.5C26 18.7652 26.1054 19.0196 26.2929 19.2071C26.4804 19.3946 26.7348 19.5 27 19.5Z" fill="#95C50B"/>
<path d="M27 23.5H31C31.2652 23.5 31.5196 23.3946 31.7071 23.2071C31.8946 23.0196 32 22.7652 32 22.5C32 22.2348 31.8946 21.9804 31.7071 21.7929C31.5196 21.6054 31.2652 21.5 31 21.5H27C26.7348 21.5 26.4804 21.6054 26.2929 21.7929C26.1054 21.9804 26 22.2348 26 22.5C26 22.7652 26.1054 23.0196 26.2929 23.2071C26.4804 23.3946 26.7348 23.5 27 23.5Z" fill="#95C50B"/>
<path d="M5.00977 8.49219C4.61914 8.49219 4.22363 8.50684 3.82324 8.53613C3.42285 8.56543 3.06152 8.64844 2.73926 8.78516C2.41699 8.92187 2.15332 9.13184 1.94824 9.41504C1.74316 9.68848 1.64062 10.0742 1.64062 10.5723C1.64062 11.0703 1.74316 11.4609 1.94824 11.7441C2.15332 12.0176 2.41699 12.2227 2.73926 12.3594C3.06152 12.4961 3.42285 12.5791 3.82324 12.6084C4.22363 12.6377 4.61914 12.6523 5.00977 12.6523H8.49609V16.6367H6.65039C6.25977 16.6367 5.86914 16.6514 5.47852 16.6807C5.07812 16.7002 4.72656 16.7783 4.42383 16.915C4.11133 17.042 3.85742 17.2422 3.66211 17.5156C3.4668 17.7793 3.36914 18.1504 3.36914 18.6289C3.36914 19.1172 3.4668 19.4932 3.66211 19.7568C3.85742 20.0205 4.11133 20.2207 4.42383 20.3574C4.72656 20.4844 5.07812 20.5625 5.47852 20.5918C5.86914 20.6113 6.25977 20.6211 6.65039 20.6211H8.49609V24.8398H5.00977C4.61914 24.8398 4.22363 24.8545 3.82324 24.8838C3.42285 24.9131 3.06152 24.9961 2.73926 25.1328C2.41699 25.2598 2.15332 25.4648 1.94824 25.748C1.74316 26.0215 1.64062 26.4023 1.64062 26.8906C1.64062 27.3984 1.74805 27.7939 1.96289 28.0771C2.16797 28.3604 2.43164 28.5703 2.75391 28.707C3.07617 28.8438 3.4375 28.9268 3.83789 28.9561C4.23828 28.9854 4.62891 29 5.00977 29H10.752C11.2988 29 11.7236 28.9023 12.0264 28.707C12.3193 28.5117 12.5342 28.2578 12.6709 27.9453C12.8076 27.623 12.8906 27.2617 12.9199 26.8613C12.9395 26.4609 12.9492 26.0508 12.9492 25.6309V11.8613C12.9492 11.4414 12.9395 11.0312 12.9199 10.6309C12.8906 10.2305 12.8076 9.87402 12.6709 9.56152C12.5342 9.23926 12.3193 8.98047 12.0264 8.78516C11.7236 8.58984 11.2988 8.49219 10.752 8.49219H5.00977Z" fill="#95C50B"/>
<path d="M52.9902 8.49219C53.3809 8.49219 53.7764 8.50684 54.1768 8.53613C54.5771 8.56543 54.9385 8.64844 55.2607 8.78516C55.583 8.92187 55.8467 9.13184 56.0518 9.41504C56.2568 9.68848 56.3594 10.0742 56.3594 10.5723C56.3594 11.0703 56.2568 11.4609 56.0518 11.7441C55.8467 12.0176 55.583 12.2227 55.2607 12.3594C54.9385 12.4961 54.5771 12.5791 54.1768 12.6084C53.7764 12.6377 53.3809 12.6523 52.9902 12.6523H49.5039V16.6367H51.3496C51.7402 16.6367 52.1309 16.6514 52.5215 16.6807C52.9219 16.7002 53.2734 16.7783 53.5762 16.915C53.8887 17.042 54.1426 17.2422 54.3379 17.5156C54.5332 17.7793 54.6309 18.1504 54.6309 18.6289C54.6309 19.1172 54.5332 19.4932 54.3379 19.7568C54.1426 20.0205 53.8887 20.2207 53.5762 20.3574C53.2734 20.4844 52.9219 20.5625 52.5215 20.5918C52.1309 20.6113 51.7402 20.6211 51.3496 20.6211H49.5039V24.8398H52.9902C53.3809 24.8398 53.7764 24.8545 54.1768 24.8838C54.5771 24.9131 54.9385 24.9961 55.2607 25.1328C55.583 25.2598 55.8467 25.4648 56.0518 25.748C56.2568 26.0215 56.3594 26.4023 56.3594 26.8906C56.3594 27.3984 56.252 27.7939 56.0371 28.0771C55.832 28.3604 55.5684 28.5703 55.2461 28.707C54.9238 28.8438 54.5625 28.9268 54.1621 28.9561C53.7617 28.9854 53.3711 29 52.9902 29H47.248C46.7012 29 46.2764 28.9023 45.9736 28.707C45.6807 28.5117 45.4658 28.2578 45.3291 27.9453C45.1924 27.623 45.1094 27.2617 45.0801 26.8613C45.0605 26.4609 45.0508 26.0508 45.0508 25.6309V11.8613C45.0508 11.4414 45.0605 11.0312 45.0801 10.6309C45.1094 10.2305 45.1924 9.87402 45.3291 9.56152C45.4658 9.23926 45.6807 8.98047 45.9736 8.78516C46.2764 8.58984 46.7012 8.49219 47.248 8.49219H52.9902Z" fill="#95C50B"/>
</svg>
