<svg width="32" height="32" viewBox="0 0 32 32" fill="none" xmlns="http://www.w3.org/2000/svg">
<path d="M27 15.5H23V7.49999C22.9991 7.33529 22.9576 7.17334 22.8791 7.02854C22.8006 6.88374 22.6876 6.76058 22.55 6.66999L16.55 2.66999C16.3867 2.56247 16.1955 2.50516 16 2.50516C15.8045 2.50516 15.6133 2.56247 15.45 2.66999L9.45 6.66999C9.31244 6.76058 9.19938 6.88374 9.12088 7.02854C9.04237 7.17334 9.00085 7.33529 9 7.49999V15.5H5C4.20435 15.5 3.44129 15.8161 2.87868 16.3787C2.31607 16.9413 2 17.7043 2 18.5V28.5C2 28.7652 2.10536 29.0196 2.29289 29.2071C2.48043 29.3946 2.73478 29.5 3 29.5H29C29.2652 29.5 29.5196 29.3946 29.7071 29.2071C29.8946 29.0196 30 28.7652 30 28.5V18.5C30 17.7043 29.6839 16.9413 29.1213 16.3787C28.5587 15.8161 27.7956 15.5 27 15.5ZM4 18.5C4 18.2348 4.10536 17.9804 4.29289 17.7929C4.48043 17.6053 4.73478 17.5 5 17.5H9V27.5H4V18.5ZM11 16.5V7.99999L16 4.69999L21 7.99999V27.5H19V18.5C19 18.2348 18.8946 17.9804 18.7071 17.7929C18.5196 17.6053 18.2652 17.5 18 17.5H14C13.7348 17.5 13.4804 17.6053 13.2929 17.7929C13.1054 17.9804 13 18.2348 13 18.5V27.5H11V16.5ZM15 27.5V19.5H17V27.5H15ZM28 27.5H23V17.5H27C27.2652 17.5 27.5196 17.6053 27.7071 17.7929C27.8946 17.9804 28 18.2348 28 18.5V27.5Z" fill="#95C50B"/>
<path d="M14 10.5H18C18.2652 10.5 18.5196 10.3946 18.7071 10.2071C18.8946 10.0196 19 9.76522 19 9.5C19 9.23478 18.8946 8.98043 18.7071 8.79289C18.5196 8.60536 18.2652 8.5 18 8.5H14C13.7348 8.5 13.4804 8.60536 13.2929 8.79289C13.1054 8.98043 13 9.23478 13 9.5C13 9.76522 13.1054 10.0196 13.2929 10.2071C13.4804 10.3946 13.7348 10.5 14 10.5Z" fill="#95C50B"/>
<path d="M14 14.5H18C18.2652 14.5 18.5196 14.3946 18.7071 14.2071C18.8946 14.0196 19 13.7652 19 13.5C19 13.2348 18.8946 12.9804 18.7071 12.7929C18.5196 12.6054 18.2652 12.5 18 12.5H14C13.7348 12.5 13.4804 12.6054 13.2929 12.7929C13.1054 12.9804 13 13.2348 13 13.5C13 13.7652 13.1054 14.0196 13.2929 14.2071C13.4804 14.3946 13.7348 14.5 14 14.5Z" fill="#95C50B"/>
</svg>
